<?xml version="1.0" encoding="UTF-8"?>
<svg width="526px" height="99px" viewBox="0 0 526 99" version="1.1" xmlns="http://www.w3.org/2000/svg" xmlns:xlink="http://www.w3.org/1999/xlink">
    <!-- Generator: Sketch 56.3 (81716) - https://sketch.com -->
    <title>Revvsales_logo</title>
    <desc>Created with Sketch.</desc>
    <g id="final-Revvsales_logo" stroke="none" stroke-width="1" fill="none" fill-rule="evenodd">
        <g id="Revvsales_logo" transform="translate(-37.000000, -51.000000)">
            <g transform="translate(37.244898, 50.000000)" id="Group">
                <g>
                    <path d="M61.9734132,71.4465963 L40.7227111,71.4465963 L29.8633215,52.8171261 L18.4422393,52.8171261 L18.4422393,71.4465963 L0,71.4465963 L0,1.23502542 L29.5824752,1.23502542 C43.8120202,1.23502542 55.4203333,12.8433385 55.4203333,27.0728835 C55.4203333,34.5621177 52.1437933,41.3024285 47.0885602,45.9831999 L61.9734132,71.4465963 Z M18.4422393,16.7751864 L18.4422393,36.9025034 L29.8633215,36.9025034 C35.4802471,36.9025034 39.9737877,32.5025783 39.9737877,26.8856526 C39.9737877,21.268727 35.4802471,16.7751864 29.8633215,16.7751864 L18.4422393,16.7751864 Z M67.0799263,71.4465963 L67.0799263,1.23502542 L110.704716,1.23502542 L110.704716,16.4943402 L85.5221656,16.4943402 L85.5221656,27.9154223 L107.802637,27.9154223 L107.802637,43.4555834 L85.5221656,43.4555834 L85.5221656,56.3745124 L110.704716,56.3745124 L110.704716,71.4465963 L67.0799263,71.4465963 Z M171.329851,1.23502542 L189.678475,1.23502542 L157.006691,71.5402117 L148.581302,71.5402117 L115.815902,1.23502542 L134.351757,1.23502542 L152.793996,41.2088131 L171.329851,1.23502542 Z M250.341348,1.23502542 L268.689971,1.23502542 L236.018187,71.5402117 L227.592799,71.5402117 L194.827399,1.23502542 L213.363254,1.23502542 L231.805493,41.2088131 L250.341348,1.23502542 Z" id="REVV" fill="#06D1C6" fill-rule="nonzero"></path>
                    <path d="M306.196171,50.6405675 L289.907087,50.6405675 C289.907087,47.7384892 287.473086,45.3044881 284.571008,45.3044881 C281.668929,45.3044881 279.328544,47.7384892 279.328544,50.6405675 C279.328544,53.5426457 281.668929,55.8830314 284.571008,55.8830314 C291.404934,55.8830314 297.583552,59.1595714 301.5154,64.2148045 C304.511094,67.9594216 306.196171,72.640193 306.196171,77.7890415 C306.196171,89.7718163 296.553782,99.3205899 284.571008,99.3205899 C272.588233,99.3205899 262.945844,89.8654317 262.945844,77.5081952 L279.328544,77.5081952 C279.328544,80.5038889 281.668929,82.8442746 284.571008,82.8442746 C287.473086,82.8442746 289.907087,80.5038889 289.907087,77.6018107 C289.907087,74.6997324 287.473086,72.2657313 284.571008,72.2657313 C272.588233,72.2657313 263.039459,62.7169576 263.039459,50.7341829 C263.039459,38.7514081 272.588233,29.1090191 284.571008,29.1090191 C296.553782,29.1090191 306.196171,38.6577927 306.196171,50.6405675 Z M323.449495,99.3205899 L305.007256,99.3205899 L337.772655,29.1090191 L346.104428,29.1090191 L379.150674,99.3205899 L360.708435,99.3205899 L356.402125,90.146278 L327.662189,90.146278 L323.449495,99.3205899 Z M342.078965,59.1595714 L334.870577,74.606117 L349.193737,74.606117 L342.078965,59.1595714 Z M384.210748,99.3205899 L384.210748,29.1090191 L402.652987,29.1090191 L402.652987,80.7847352 L427.929152,80.7847352 L427.929152,99.3205899 L384.210748,99.3205899 Z M432.989225,99.3205899 L432.989225,29.1090191 L476.614015,29.1090191 L476.614015,44.3683338 L451.431465,44.3683338 L451.431465,55.789416 L473.711937,55.789416 L473.711937,71.329577 L451.431465,71.329577 L451.431465,84.248506 L476.614015,84.248506 L476.614015,99.3205899 L432.989225,99.3205899 Z M524.924416,50.6405675 L508.635331,50.6405675 C508.635331,47.7384892 506.20133,45.3044881 503.299252,45.3044881 C500.397174,45.3044881 498.056788,47.7384892 498.056788,50.6405675 C498.056788,53.5426457 500.397174,55.8830314 503.299252,55.8830314 C510.133178,55.8830314 516.311796,59.1595714 520.243644,64.2148045 C523.239338,67.9594216 524.924416,72.640193 524.924416,77.7890415 C524.924416,89.7718163 515.282027,99.3205899 503.299252,99.3205899 C491.316477,99.3205899 481.674088,89.8654317 481.674088,77.5081952 L498.056788,77.5081952 C498.056788,80.5038889 500.397174,82.8442746 503.299252,82.8442746 C506.20133,82.8442746 508.635331,80.5038889 508.635331,77.6018107 C508.635331,74.6997324 506.20133,72.2657313 503.299252,72.2657313 C491.316477,72.2657313 481.767703,62.7169576 481.767703,50.7341829 C481.767703,38.7514081 491.316477,29.1090191 503.299252,29.1090191 C515.282027,29.1090191 524.924416,38.6577927 524.924416,50.6405675 Z" id="SALES" fill="#05136F" fill-rule="nonzero"></path>
                    <polygon id="Path" fill="#FF0078" transform="translate(253.630766, 50.383125) rotate(0.500000) translate(-253.630766, -50.383125) " points="273.328424 1.06125508 229.252515 99.7458419 233.933108 99.704995 278.009017 1.02040816"></polygon>
                </g>
            </g>
        </g>
    </g>
</svg>